<?xml version="1.0" encoding="UTF-8"?>
<!DOCTYPE svg PUBLIC "-//W3C//DTD SVG 1.1//EN" "http://www.w3.org/Graphics/SVG/1.1/DTD/svg11.dtd">
<svg xmlns="http://www.w3.org/2000/svg" version="1.1" width="500px" height="500px" style="shape-rendering:geometricPrecision; text-rendering:geometricPrecision; image-rendering:optimizeQuality; fill-rule:evenodd; clip-rule:evenodd" xmlns:xlink="http://www.w3.org/1999/xlink">
<g><path style="opacity:0.835" fill="#f19e22" d="M 296.5,44.5 C 299.025,39.4341 300.192,34.1008 300,28.5C 297.588,24.0841 294.422,20.2508 290.5,17C 293.495,17.646 296.495,18.646 299.5,20C 307.897,21.1348 314.231,17.9682 318.5,10.5C 318.833,10.6667 319.167,10.8333 319.5,11C 316.152,16.0361 314.652,21.5361 315,27.5C 317.412,31.9159 320.578,35.7492 324.5,39C 320.094,37.5313 315.594,36.0313 311,34.5C 305.235,36.4231 300.402,39.7564 296.5,44.5 Z"/></g>
<g><path style="opacity:0.938" fill="#58bceb" d="M 310.5,41.5 C 328.972,87.6524 319.638,127.152 282.5,160C 263.022,174.577 242.689,187.91 221.5,200C 205.844,209.322 194.011,222.155 186,238.5C 183.875,244.668 182.541,251.001 182,257.5C 177.844,237.949 181.51,219.949 193,203.5C 200.167,195 208,187.167 216.5,180C 238.353,165.151 259.353,149.151 279.5,132C 304.849,107.123 315.182,76.9561 310.5,41.5 Z"/></g>
<g><path style="opacity:0.063" fill="#f19e22" d="M 296.5,44.5 C 295.833,45.1667 295.833,45.1667 296.5,44.5 Z"/></g>
<g><path style="opacity:0.741" fill="#f19e22" d="M 277.5,57.5 C 278.83,60.0942 280.163,62.7608 281.5,65.5C 283.982,66.8972 286.648,67.7306 289.5,68C 282.333,68.5 278.5,72.3333 278,79.5C 277.617,72.7847 274.117,68.9514 267.5,68C 274.451,67.8836 277.784,64.3836 277.5,57.5 Z"/></g>
<g><path style="opacity:0.547" fill="#f19e22" d="M 346.5,66.5 C 347.837,67.3149 348.837,68.4815 349.5,70C 350.5,70.3333 351.5,70.6667 352.5,71C 350,72.1667 348.167,74 347,76.5C 346.667,75.5 346.333,74.5 346,73.5C 340.719,71.9815 340.552,70.8149 345.5,70C 346.337,68.9887 346.67,67.8221 346.5,66.5 Z"/></g>
<g><path style="opacity:0.953" fill="#f19e22" d="M 242.5,78.5 C 259.118,78.9892 267.784,87.6558 268.5,104.5C 267.898,119.261 260.398,127.928 246,130.5C 234.556,129.055 227.556,122.722 225,111.5C 222.368,99.7315 225.534,89.8981 234.5,82C 237.158,80.522 239.825,79.3554 242.5,78.5 Z"/></g>
<g><path style="opacity:0.934" fill="#58bceb" d="M 198.5,119.5 C 199.376,119.369 200.043,119.702 200.5,120.5C 184.565,162.974 169.232,205.64 154.5,248.5C 176.67,254.493 195.17,266.16 210,283.5C 214.112,289.057 217.112,295.057 219,301.5C 195.251,275.372 165.751,259.872 130.5,255C 142.933,217.035 155.766,179.201 169,141.5C 176.164,130.491 185.998,123.158 198.5,119.5 Z"/></g>
<g><path style="opacity:0.932" fill="#f19e23" d="M 334.5,159.5 C 330.76,168.577 325.76,176.91 319.5,184.5C 311.168,193.313 301.501,200.48 290.5,206C 266.167,215.667 241.833,225.333 217.5,235C 205.771,240.729 196.604,249.229 190,260.5C 190.916,250.427 194.583,241.427 201,233.5C 207.819,225.688 215.652,219.188 224.5,214C 249.136,202.35 273.803,190.683 298.5,179C 318.272,167.568 331.772,151.068 339,129.5C 339.688,139.849 338.188,149.849 334.5,159.5 Z"/></g>
<g><path style="opacity:0.934" fill="#0978bd" d="M 154.5,139.5 C 156.225,139.843 156.725,140.843 156,142.5C 140.685,183.627 125.518,224.794 110.5,266C 143.187,267.343 173.52,276.343 201.5,293C 206.336,295.762 210.169,299.262 213,303.5C 185.96,289.197 157.127,281.03 126.5,279C 112.825,277.776 99.1586,277.443 85.5,278C 97.8588,241.257 110.025,204.423 122,167.5C 128.605,153.134 139.438,143.801 154.5,139.5 Z"/></g>
<g><path style="opacity:0.935" fill="#0978bd" d="M 284.5,302.5 C 290.72,296.378 297.72,291.212 305.5,287C 330.632,274.217 357.298,267.384 385.5,266.5C 371.299,224.232 356.299,182.232 340.5,140.5C 357.654,143.111 369.487,152.778 376,169.5C 387.734,205.537 399.568,241.537 411.5,277.5C 367.08,275.451 324.747,283.784 284.5,302.5 Z"/></g>
<g><path style="opacity:0.932" fill="#58bbea" d="M 334.5,159.5 C 345.239,191.215 355.905,223.049 366.5,255C 340.438,258.866 316.771,268.533 295.5,284C 289.5,288.667 284.167,294 279.5,300C 278.833,300.667 278.167,300.667 277.5,300C 286.084,281.082 299.751,267.082 318.5,258C 326.392,254.22 334.392,250.72 342.5,247.5C 335,226.325 327.334,205.325 319.5,184.5C 325.76,176.91 330.76,168.577 334.5,159.5 Z"/></g>
<g><path style="opacity:0.942" fill="#19457e" d="M 109.5,164.5 C 110.376,164.369 111.043,164.702 111.5,165.5C 97.5573,206.661 84.2239,247.994 71.5,289.5C 122.424,285.155 171.424,292.822 218.5,312.5C 231.138,294.09 247.471,289.924 267.5,300C 271.724,303.887 275.558,308.054 279,312.5C 309.767,299.1 341.934,291.267 375.5,289C 392.527,288.423 409.527,288.423 426.5,289C 412.187,247.569 398.854,206.069 386.5,164.5C 401.82,168.996 412.986,178.329 420,192.5C 431.482,231.763 442.648,271.096 453.5,310.5C 408.142,303.696 362.808,303.863 317.5,311C 302.967,313.717 288.633,317.217 274.5,321.5C 265.622,301.618 251.622,296.784 232.5,307C 228.123,311.043 224.956,315.876 223,321.5C 165.215,304.611 106.548,300.944 47,310.5C 45.8333,310.167 44.6667,309.833 43.5,309.5C 54.6655,270.839 65.8321,232.172 77,193.5C 83.6529,179.007 94.4863,169.34 109.5,164.5 Z"/></g>
<g><path style="opacity:0.157" fill="#0978bd" d="M 284.5,302.5 C 283.833,303.167 283.833,303.167 284.5,302.5 Z"/></g>
<g><path style="opacity:0.91" fill="#19457e" d="M 459.5,356.5 C 465.232,356.283 470.899,356.783 476.5,358C 484.62,359.956 488.953,365.123 489.5,373.5C 484.5,374.833 479.5,374.833 474.5,373.5C 473.013,369.669 470.18,368.003 466,368.5C 461.778,368.021 458.944,369.688 457.5,373.5C 457.876,375.383 458.876,376.883 460.5,378C 467.167,380 473.833,382 480.5,384C 487.94,386.947 491.607,392.447 491.5,400.5C 491.278,408.786 487.278,414.286 479.5,417C 469.405,419.223 459.405,418.89 449.5,416C 443.31,412.289 440.644,406.789 441.5,399.5C 446.5,399.5 451.5,399.5 456.5,399.5C 457.371,404.966 460.705,407.633 466.5,407.5C 474.917,407.152 477.25,403.319 473.5,396C 464.614,393.612 455.947,390.612 447.5,387C 441.908,379.741 441.074,371.908 445,363.5C 449.082,359.451 453.915,357.118 459.5,356.5 Z"/></g>
<g><path style="opacity:0.918" fill="#19457e" d="M 9.5,357.5 C 25.8333,357.5 42.1667,357.5 58.5,357.5C 58.5,361.5 58.5,365.5 58.5,369.5C 47.1667,369.5 35.8333,369.5 24.5,369.5C 24.5,373.833 24.5,378.167 24.5,382.5C 33.1667,382.5 41.8333,382.5 50.5,382.5C 50.5,386.167 50.5,389.833 50.5,393.5C 41.8333,393.5 33.1667,393.5 24.5,393.5C 24.5,397.833 24.5,402.167 24.5,406.5C 35.8333,406.5 47.1667,406.5 58.5,406.5C 58.5,410.167 58.5,413.833 58.5,417.5C 42.1667,417.5 25.8333,417.5 9.5,417.5C 9.5,397.5 9.5,377.5 9.5,357.5 Z"/></g>
<g><path style="opacity:0.91" fill="#19457e" d="M 153.5,357.5 C 164.838,357.333 176.172,357.5 187.5,358C 193.704,358.844 198.204,362.01 201,367.5C 202.517,373.08 202.851,378.747 202,384.5C 200.382,391.784 195.882,395.951 188.5,397C 182.175,397.5 175.842,397.666 169.5,397.5C 169.5,404.167 169.5,410.833 169.5,417.5C 164.167,417.5 158.833,417.5 153.5,417.5C 153.5,397.5 153.5,377.5 153.5,357.5 Z M 169.5,369.5 C 174.179,369.334 178.845,369.501 183.5,370C 188.39,374.512 188.724,379.345 184.5,384.5C 179.667,386.243 174.667,386.91 169.5,386.5C 169.5,380.833 169.5,375.167 169.5,369.5 Z"/></g>
<g><path style="opacity:0.906" fill="#19457e" d="M 209.5,357.5 C 225.833,357.5 242.167,357.5 258.5,357.5C 258.5,361.5 258.5,365.5 258.5,369.5C 247.5,369.5 236.5,369.5 225.5,369.5C 225.5,373.833 225.5,378.167 225.5,382.5C 233.833,382.5 242.167,382.5 250.5,382.5C 250.5,386.167 250.5,389.833 250.5,393.5C 242.167,393.5 233.833,393.5 225.5,393.5C 225.5,397.833 225.5,402.167 225.5,406.5C 236.5,406.5 247.5,406.5 258.5,406.5C 258.5,410.167 258.5,413.833 258.5,417.5C 242.167,417.5 225.833,417.5 209.5,417.5C 209.5,397.5 209.5,377.5 209.5,357.5 Z"/></g>
<g><path style="opacity:0.935" fill="#19457e" d="M 265.5,357.5 C 278.219,357.102 290.886,357.602 303.5,359C 311.266,362.854 314.932,369.187 314.5,378C 314.363,380.898 313.863,383.731 313,386.5C 311.106,390.236 308.606,393.569 305.5,396.5C 309.958,403.249 314.292,410.082 318.5,417C 312.5,417.667 306.5,417.667 300.5,417C 296.303,410.968 292.303,404.801 288.5,398.5C 285.914,397.52 283.247,397.187 280.5,397.5C 280.5,404.167 280.5,410.833 280.5,417.5C 275.5,417.5 270.5,417.5 265.5,417.5C 265.5,397.5 265.5,377.5 265.5,357.5 Z M 280.5,369.5 C 285.179,369.334 289.845,369.501 294.5,370C 297.666,371.666 299,374.332 298.5,378C 298.919,380.981 297.919,383.314 295.5,385C 290.599,386.325 285.599,386.825 280.5,386.5C 280.5,380.833 280.5,375.167 280.5,369.5 Z"/></g>
<g><path style="opacity:0.939" fill="#19457e" d="M 324.5,357.5 C 335.505,357.333 346.505,357.5 357.5,358C 368.452,359.792 373.785,366.292 373.5,377.5C 373.886,388.256 368.886,394.756 358.5,397C 352.175,397.5 345.842,397.666 339.5,397.5C 339.5,404.167 339.5,410.833 339.5,417.5C 334.5,417.5 329.5,417.5 324.5,417.5C 324.5,397.5 324.5,377.5 324.5,357.5 Z M 339.5,369.5 C 344.179,369.334 348.845,369.501 353.5,370C 356.516,371.529 357.849,374.029 357.5,377.5C 357.742,380.514 356.742,383.014 354.5,385C 349.58,386.25 344.58,386.75 339.5,386.5C 339.5,380.833 339.5,375.167 339.5,369.5 Z"/></g>
<g><path style="opacity:0.918" fill="#19457e" d="M 380.5,357.5 C 385.5,357.5 390.5,357.5 395.5,357.5C 395.333,371.504 395.5,385.504 396,399.5C 400.08,407.723 406.247,409.556 414.5,405C 415.46,403.581 416.293,402.081 417,400.5C 417.5,386.171 417.667,371.837 417.5,357.5C 422.833,357.5 428.167,357.5 433.5,357.5C 433.667,371.171 433.5,384.837 433,398.5C 432.321,406.494 428.488,412.327 421.5,416C 410.695,419.574 400.028,419.241 389.5,415C 386.238,412.408 383.738,409.241 382,405.5C 380.546,389.571 380.046,373.571 380.5,357.5 Z"/></g>
<g><path style="opacity:0.866" fill="#19457e" d="M 88.5,386.5 C 99.1667,386.5 109.833,386.5 120.5,386.5C 120.5,390.167 120.5,393.833 120.5,397.5C 109.833,397.5 99.1667,397.5 88.5,397.5C 88.5,393.833 88.5,390.167 88.5,386.5 Z"/></g>
<g><path style="opacity:0.803" fill="#a5a8aa" d="M 77.5,448.5 C 82.8437,448.334 88.1771,448.501 93.5,449C 98.7125,451.41 101.046,455.576 100.5,461.5C 100.65,465.883 99.3171,469.717 96.5,473C 90.2855,474.416 83.9522,474.916 77.5,474.5C 77.5,465.833 77.5,457.167 77.5,448.5 Z M 82.5,452.5 C 90.4671,450.487 94.8004,453.487 95.5,461.5C 95.185,469.714 90.8516,473.048 82.5,471.5C 82.5,465.167 82.5,458.833 82.5,452.5 Z"/></g>
<g><path style="opacity:0.801" fill="#a5a8aa" d="M 107.5,448.5 C 109.167,448.5 110.833,448.5 112.5,448.5C 112.5,457.167 112.5,465.833 112.5,474.5C 110.833,474.5 109.167,474.5 107.5,474.5C 107.5,465.833 107.5,457.167 107.5,448.5 Z"/></g>
<g><path style="opacity:0.783" fill="#a5a8aa" d="M 125.5,448.5 C 129.967,448.133 134.3,448.633 138.5,450C 141.024,451.883 142.358,454.383 142.5,457.5C 140.712,457.785 139.045,457.452 137.5,456.5C 134.545,452.063 130.878,451.396 126.5,454.5C 123.657,459.91 123.991,465.077 127.5,470C 133.355,472.575 136.689,470.741 137.5,464.5C 135.833,464.5 134.167,464.5 132.5,464.5C 132.5,463.167 132.5,461.833 132.5,460.5C 135.833,460.5 139.167,460.5 142.5,460.5C 142.5,465.167 142.5,469.833 142.5,474.5C 140.549,474.773 139.049,474.107 138,472.5C 131.78,476.854 126.113,476.187 121,470.5C 117.864,462.009 119.364,454.675 125.5,448.5 Z"/></g>
<g><path style="opacity:0.801" fill="#a5a8aa" d="M 150.5,448.5 C 152.167,448.5 153.833,448.5 155.5,448.5C 155.5,457.167 155.5,465.833 155.5,474.5C 153.833,474.5 152.167,474.5 150.5,474.5C 150.5,465.833 150.5,457.167 150.5,448.5 Z"/></g>
<g><path style="opacity:0.789" fill="#a5a8aa" d="M 161.5,448.5 C 168.5,448.5 175.5,448.5 182.5,448.5C 182.5,449.833 182.5,451.167 182.5,452.5C 179.833,452.5 177.167,452.5 174.5,452.5C 174.5,459.833 174.5,467.167 174.5,474.5C 172.833,474.5 171.167,474.5 169.5,474.5C 169.5,467.167 169.5,459.833 169.5,452.5C 166.833,452.5 164.167,452.5 161.5,452.5C 161.5,451.167 161.5,449.833 161.5,448.5 Z"/></g>
<g><path style="opacity:0.788" fill="#a5a8aa" d="M 193.5,448.5 C 196.167,448.5 198.833,448.5 201.5,448.5C 203.472,457.22 206.138,465.72 209.5,474C 207.527,474.495 205.527,474.662 203.5,474.5C 203.335,472.173 202.669,470.007 201.5,468C 198.518,467.502 195.518,467.335 192.5,467.5C 192.995,473.231 190.662,475.231 185.5,473.5C 188.171,465.154 190.838,456.821 193.5,448.5 Z M 196.5,454.5 C 198.383,456.763 199.716,459.43 200.5,462.5C 198.604,463.466 196.604,463.799 194.5,463.5C 195.167,460.5 195.833,457.5 196.5,454.5 Z"/></g>
<g><path style="opacity:0.853" fill="#a5a8aa" d="M 214.5,448.5 C 216.167,448.5 217.833,448.5 219.5,448.5C 219.5,456.167 219.5,463.833 219.5,471.5C 224.5,471.5 229.5,471.5 234.5,471.5C 234.5,472.5 234.5,473.5 234.5,474.5C 227.833,474.5 221.167,474.5 214.5,474.5C 214.5,465.833 214.5,457.167 214.5,448.5 Z"/></g>
<g><path style="opacity:0.85" fill="#a5a8aa" d="M 253.5,448.5 C 255.167,448.5 256.833,448.5 258.5,448.5C 258.5,456.167 258.5,463.833 258.5,471.5C 263.5,471.5 268.5,471.5 273.5,471.5C 273.5,472.5 273.5,473.5 273.5,474.5C 266.833,474.5 260.167,474.5 253.5,474.5C 253.5,465.833 253.5,457.167 253.5,448.5 Z"/></g>
<g><path style="opacity:0.801" fill="#a5a8aa" d="M 279.5,448.5 C 281.167,448.5 282.833,448.5 284.5,448.5C 284.5,457.167 284.5,465.833 284.5,474.5C 282.833,474.5 281.167,474.5 279.5,474.5C 279.5,465.833 279.5,457.167 279.5,448.5 Z"/></g>
<g><path style="opacity:0.811" fill="#a5a8aa" d="M 292.5,448.5 C 298.621,448.09 304.621,448.59 310.5,450C 313.167,453.667 313.167,457.333 310.5,461C 315.42,465.003 315.753,469.337 311.5,474C 305.175,474.5 298.842,474.666 292.5,474.5C 292.5,465.833 292.5,457.167 292.5,448.5 Z M 297.5,452.5 C 300.187,452.336 302.854,452.503 305.5,453C 308.167,455 308.167,457 305.5,459C 302.854,459.497 300.187,459.664 297.5,459.5C 297.5,457.167 297.5,454.833 297.5,452.5 Z M 297.5,463.5 C 300.518,463.335 303.518,463.502 306.5,464C 310.412,466.28 310.412,468.447 306.5,470.5C 303.551,471.302 300.551,471.636 297.5,471.5C 297.5,468.833 297.5,466.167 297.5,463.5 Z"/></g>
<g><path style="opacity:0.785" fill="#a5a8aa" d="M 320.5,448.5 C 325.844,448.334 331.177,448.501 336.5,449C 338.333,449.5 339.5,450.667 340,452.5C 340.667,455.5 340.667,458.5 340,461.5C 339.5,463.333 338.333,464.5 336.5,465C 338.694,467.695 340.694,470.528 342.5,473.5C 340.579,474.641 338.579,474.808 336.5,474C 334.709,471.586 333.043,469.086 331.5,466.5C 329.604,465.534 327.604,465.201 325.5,465.5C 325.5,468.5 325.5,471.5 325.5,474.5C 323.833,474.5 322.167,474.5 320.5,474.5C 320.5,465.833 320.5,457.167 320.5,448.5 Z M 325.5,452.5 C 328.187,452.336 330.854,452.503 333.5,453C 336.167,455.667 336.167,458.333 333.5,461C 330.854,461.497 328.187,461.664 325.5,461.5C 325.5,458.5 325.5,455.5 325.5,452.5 Z"/></g>
<g><path style="opacity:0.785" fill="#a5a8aa" d="M 353.5,448.5 C 356.247,448.187 358.914,448.52 361.5,449.5C 364.368,457.437 367.035,465.437 369.5,473.5C 367.833,474.833 366.167,474.833 364.5,473.5C 363.833,471.833 363.167,470.167 362.5,468.5C 355.767,465.587 352.1,467.587 351.5,474.5C 349.473,474.662 347.473,474.495 345.5,474C 348.87,465.723 351.537,457.223 353.5,448.5 Z M 357.5,454.5 C 359.072,457.215 360.072,460.215 360.5,463.5C 358.473,463.662 356.473,463.495 354.5,463C 355.798,460.273 356.798,457.44 357.5,454.5 Z"/></g>
<g><path style="opacity:0.8" fill="#a5a8aa" d="M 375.5,448.5 C 380.511,448.334 385.511,448.501 390.5,449C 395.473,452.389 396.64,456.889 394,462.5C 393.097,463.701 391.931,464.535 390.5,465C 392.694,467.695 394.694,470.528 396.5,473.5C 394.5,474.833 392.5,474.833 390.5,473.5C 388.546,468.857 385.213,466.191 380.5,465.5C 380.5,468.5 380.5,471.5 380.5,474.5C 378.833,474.5 377.167,474.5 375.5,474.5C 375.5,465.833 375.5,457.167 375.5,448.5 Z M 380.5,452.5 C 382.857,452.337 385.19,452.503 387.5,453C 391.09,455.028 391.423,457.528 388.5,460.5C 385.916,461.393 383.249,461.726 380.5,461.5C 380.5,458.5 380.5,455.5 380.5,452.5 Z"/></g>
<g><path style="opacity:0.765" fill="#a5a8aa" d="M 400.5,448.5 C 402.467,448.261 404.301,448.594 406,449.5C 407.746,453.327 409.746,456.993 412,460.5C 414.293,456.748 416.46,452.914 418.5,449C 420.259,448.202 421.926,448.369 423.5,449.5C 420.867,454.628 418.033,459.628 415,464.5C 414.502,467.817 414.335,471.15 414.5,474.5C 412.833,474.5 411.167,474.5 409.5,474.5C 409.665,471.15 409.498,467.817 409,464.5C 405.505,459.509 402.672,454.175 400.5,448.5 Z"/></g>
</svg>
